<?xml version="1.0" standalone="no"?>
<!DOCTYPE svg PUBLIC "-//W3C//DTD SVG 1.1//EN" "http://www.w3.org/Graphics/SVG/1.1/DTD/svg11.dtd" >
<svg xmlns="http://www.w3.org/2000/svg">
<metadata>Generated by IcoMoon</metadata>
<defs>
<font id="baserent" horiz-adv-x="1024">
<font-face units-per-em="1024" ascent="960" descent="-64" />
<missing-glyph horiz-adv-x="1024" />
<glyph unicode="&#x20;" horiz-adv-x="0" d="" />
<glyph unicode="&#x41;" glyph-name="edit" d="M0-64h1006v100h-1006zM352 286v136l286 264 100-110-256-290zM792 824l88-88-68-72-92 92 72 68zM1024 722l-238 238-534-496v-278h274z" />
<glyph unicode="&#x42;" glyph-name="printer" d="M470 456c0-28-24-50-52-50s-52 22-52 50c0 28 24 52 52 52s52-24 52-52zM264 456c0-28-22-50-50-50s-52 22-52 50c0 28 24 52 52 52s50-24 50-52zM922 166c0-14-12-26-26-26h-26v206h-716v-206h-26c-14 0-26 12-26 26v334c0 28 24 50 52 50h716c28 0 52-22 52-50zM768 90c0-28-22-52-52-52h-408c-30 0-52 24-52 52v154h512zM204 806c0 28 24 52 52 52h512c28 0 52-24 52-52v-154h-616zM922 652v206c0 56-46 102-102 102h-616c-56 0-102-46-102-102v-206c-56 0-102-46-102-102v-410c0-56 46-102 102-102h52c0-56 46-102 102-102h512c56 0 102 46 102 102h52c56 0 102 46 102 102v410c0 56-46 102-102 102z" />
<glyph unicode="&#x43;" glyph-name="delete" d="M358 140v410h102v-410zM564 140v410h102v-410zM256 38v614h512v-614zM358 756v102h308v-102zM768 756v204h-512v-204h-256v-104h154v-716h716v716h154v104z" />
<glyph unicode="&#x44;" glyph-name="download" d="M512 130l254 240-72 74-130-124v384h-104v-384l-130 124-72-74zM102 38v820h820v-820zM0-64h1024v1024h-1024z" />
<glyph unicode="&#x45;" glyph-name="view-simple" d="M614 448c0-58-46-106-102-106s-102 48-102 106c0 58 46 106 102 106s102-48 102-106zM512 248c-154 0-298 74-390 200 92 126 236 200 390 200s298-74 390-200c-92-126-236-200-390-200zM512 756c-218 0-410-124-512-308 102-184 294-308 512-308s410 124 512 308c-102 184-294 308-512 308z" />
<glyph unicode="&#x46;" glyph-name="filter" d="M564 448v-204h-104v204l-282 410h668zM460 38v102h104v-102zM0 960l358-556v-468h308v468l358 556z" />
<glyph unicode="&#x47;" glyph-name="attachment" d="M916 502l-240-506c-18-36-54-60-94-60-16 0-32 4-44 10v0l-376 172c-36 18-60 52-60 94 0 16 4 30 10 44v-2l308 646c16 36 52 60 94 60 16 0 30-4 44-10v0l234-108c36-16 60-52 60-92 0-16-4-32-10-44v0l-220-460c-16-36-52-60-94-60-16 0-30 4-44 10v0l-94 44c-34 16-60 52-60 92 0 16 4 30 10 44v0l154 320c8 18 26 30 48 30 8 0 14-2 22-4v0c16-8 30-26 30-46 0-8-2-16-6-22v0l-132-276c-2-6-4-14-4-22 0-20 12-38 30-46v0c6-2 14-4 22-4 20 0 38 12 46 30v0l176 366c4 8 4 14 4 22 0 22-12 38-28 46l-2 2-140 64c-6 2-14 4-22 4-20 0-38-12-46-28v0l-264-554c-2-6-4-14-4-22 0-20 12-38 28-46h2l280-130c6-2 14-4 22-4 22 0 38 12 48 28v2l218 460c10 16 28 28 48 28 8 0 16 0 22-4v0c18-8 30-26 30-46 0-8-2-16-6-22v0z" />
<glyph unicode="&#x48;" glyph-name="menu-dashboard-icon" d="M908 346c-44-178-206-308-396-308s-352 130-396 308zM512 858c226 0 410-184 410-410h-338l194 186-70 74-272-260h-334c0 226 184 410 410 410zM0 448c0-282 230-512 512-512s512 230 512 512c0 282-230 512-512 512s-512-230-512-512z" />
<glyph unicode="&#x49;" glyph-name="info" d="M512-64c-282 0-512 230-512 512s230 512 512 512c282 0 512-230 512-512s-230-512-512-512zM512 18c238 0 430 192 430 430s-192 430-430 430c-238 0-430-192-430-430s192-430 430-430zM574 694c0-34-28-62-62-62s-62 28-62 62c0 34 28 62 62 62s62-28 62-62zM450 550h124v-410h-124z" />
<glyph unicode="&#x4a;" glyph-name="minus" d="M0 512h1024v-128h-1024z" />
<glyph unicode="&#x4b;" glyph-name="plus" d="M576 512h448v-128h-448v-448h-128v448h-448v128h448v448h128z" />
<glyph unicode="&#x4c;" glyph-name="home-2" d="M882 318c32 0 56-24 56-56 0-58 0-142 0-142 0-64-50-142-114-142h-624c-64 0-114 78-114 142 0 0 0 84 0 142 0 32 24 56 56 56s58-24 58-56c0-50 0-114 0-114 0-32 24-56 56-56h512c32 0 56 24 56 56 0 0 0 64 0 114 0 32 26 56 58 56zM284 814c50 42 118 98 140 116 10 8 22 12 34 14 22 2 74 2 98 0 14 0 30-4 42-12 74-60 400-336 402-340 14-10 24-26 24-46v-86c0-30-26-56-56-56-32 0-58 26-58 56v62c0 0-266 222-346 290-14 12-34 18-52 18s-38-6-52-18l-176-148zM228 616l-114-94v-62c0-30-26-56-58-56-30 0-56 26-56 56v86c0 20 10 36 24 46 2 4 90 78 90 78s0 0 0 2v216c0 32 26 56 56 56 32 0 58-24 58-56z" />
<glyph unicode="&#x61;" glyph-name="s-facebook" d="M606-64v460h140l22 206h-162v100c0 52 0 104 74 104h74v146c0 4-64 8-128 8-136 0-220-84-220-240v-118h-150v-206h150v-460z" />
<glyph unicode="&#x62;" glyph-name="team" d="M1002 724h-384l14 108c0 16-4 32-16 44-10 12-26 20-42 20h-110c-16 0-32-8-42-20-12-12-16-28-14-44l12-108h-398c-6 0-12-2-16-6s-6-10-6-16v-680c0-12 10-22 22-22h980c12 0 22 10 22 22v680c0 12-10 22-22 22zM454 848c2 4 6 6 10 6h110c4 0 8-2 10-6 4-4 6-8 4-12l-22-184c0-8-6-14-14-14h-66c-8 0-14 6-14 14l-22 184c-2 4 0 8 4 12zM982 42h-940v640h382l4-34c4-30 28-52 58-52h66c30 0 54 22 58 52l4 34h368zM528 244c-94 36-118 54-122 58v4c12 16 20 32 26 48 8 8 14 20 16 32 0 10-2 22-8 32v36c0 60-38 96-102 96s-102-36-102-96v-36c-6-10-8-22-6-32 0-12 6-22 14-32 6-16 14-34 26-48v-4c-6-6-30-22-120-58-14-4-22-18-24-32v-48c0-20 16-34 36-34h352c20 0 36 14 36 34v48c0 14-10 28-22 32zM506 172h-336v34c122 48 138 68 142 84 0 2 2 4 0 6v20c0 4-2 10-6 14-10 12-18 26-22 44-2 4-4 8-8 10-2 2-4 4-4 8 0 2 0 4 2 6 2 4 4 10 4 14v42c0 36 20 54 60 54s60-16 60-54v-42c0-4 2-10 4-14 2-2 4-4 2-6 0-4 0-6-2-8-4-2-8-6-10-12-4-16-12-30-22-42-4-4-6-10-6-14v-20c0-2 0-4 0-6 6-16 20-36 142-84zM872 298h-254c-12 0-22-10-22-22 0-10 10-20 22-20h254c8 0 16 4 20 10s4 16 0 22c-4 6-12 10-20 10zM596 404c0-10 10-20 22-20h254c12 0 22 10 22 20 0 12-10 22-22 22h-254c-6 0-12-2-16-6s-6-10-6-16z" />
<glyph unicode="&#x63;" glyph-name="folder" d="M922 550h-820v308h256l100-206h464zM102 38v410h820v-410zM512 756l-102 204h-410v-1024h1024v820z" />
<glyph unicode="&#x64;" glyph-name="profile-minus" d="M514 544h-4c-70 2-126 58-126 128v0c2 70 58 124 128 124s126-54 128-124v0c0-70-56-126-126-128zM706 506c38 44 62 102 62 166v0c0 142-114 256-256 256 0 0 0 0 0 0v0c-142 0-256-114-256-256 0-64 24-120 62-166-186-76-318-266-318-480 0-2 0 0 0 0h128c0 212 170 390 382 390 0 0 2 0 2 0s2 0 2 0c212 0 382-178 382-390h128c0 214-132 404-318 480z" />
<glyph unicode="&#x65;" glyph-name="home" d="M820 38h-154v206h-308v-206h-154v470l308 308 308-308zM922 550v0l-410 410-512-512 72-72 30 30v-470h358v204h104v-204h358v470l30-30 72 72z" />
<glyph unicode="&#x66;" glyph-name="profile" d="M512 448c-112 0-204 92-204 204 0 114 92 206 204 206s204-92 204-206c0-112-92-204-204-204zM704 414c70 56 116 142 116 238 0 0 0 0 0 0v0c0 0 0 0 0 2 0 168-138 306-308 306s-308-138-308-306c0-98 46-184 116-240v0c-188-70-320-244-320-478h102c0 256 184 410 410 410s410-154 410-410h102c0 234-132 408-320 478z" />
<glyph unicode="&#x67;" glyph-name="fileboard-done" d="M768 756h-52v-104h-408v104h-52v-718h512zM410 756h204v102h-204zM870 858v-922h-716v922h154v102h408v-102zM620 542l72-72-216-218-146 144 74 74 72-74z" />
<glyph unicode="&#x68;" glyph-name="notification-bell" d="M716 244h-408v306c0 136 102 206 204 206v0c102 0 204-70 204-206zM564 90c0-28-24-52-52-52s-52 24-52 52v50h104zM820 346v204c0 182-122 284-256 304v106h-104v-106c-134-20-256-122-256-304v-204c0-56-44-102-102-102v-104h256v-50c0-86 70-154 154-154s154 68 154 154v50h256v104c-56 0-102 46-102 102z" />
<glyph unicode="&#x69;" glyph-name="close" d="M604 448l420-420-92-92-420 420-420-420-92 92 420 420-420 420 92 92 420-420 420 420 92-92z" />
<glyph unicode="&#x6a;" glyph-name="arrow-in-left" d="M1024 450l-240-254-74 70 124 130h-410v104h410l-124 132 74 68zM512-64h-512v1024h512v-204h-102v102h-308v-820h308v102h102z" />
<glyph unicode="&#x6b;" glyph-name="arrow-down" d="M922 740l-410-384-68 64-340 318-104-100c154-150 366-344 512-482 106 102-218-218 512 482z" />
<glyph unicode="&#x6c;" glyph-name="check" d="M112 486c-26 26-68 26-94 0-24-26-24-68 2-94l326-316 658 638c26 26 26 68 2 94-26 26-68 26-94 2l-566-550z" />
<glyph unicode="&#x6d;" glyph-name="dropdown-menu-option" d="M102 500h102v-104h-102zM0 602v-308h308v308zM460 500h104v-104h-104zM358 602v-308h308v308zM820 500h102v-104h-102zM716 602v-308h308v308z" />
<glyph unicode="&#x6e;" glyph-name="search" d="M1024 8l-72-72-218 218 72 72zM410 244c-170 0-308 136-308 306s138 308 308 308c168 0 306-138 306-308s-138-306-306-306zM410 960c-226 0-410-184-410-410s184-410 410-410c226 0 410 184 410 410s-184 410-410 410z" />
<glyph unicode="&#x6f;" glyph-name="pin-sharp-circle" d="M512 518c-28 0-52 22-52 52 0 28 24 50 52 50s52-22 52-50c0-30-24-52-52-52zM512 722c-84 0-154-68-154-152 0-86 70-154 154-154s154 68 154 154c0 84-70 152-154 152zM512 90c0 0-256 358-256 512 0 140 114 256 256 256s256-116 256-256c0-154-256-512-256-512zM512 960c-198 0-358-160-358-358s358-666 358-666c0 0 358 468 358 666s-160 358-358 358z" />
<glyph unicode="&#x70;" glyph-name="fileboard-checklist" d="M460 140v104h256v-104zM460 294v102h256v-102zM460 448v102h256v-102zM306 140v104h104v-104zM306 294v102h104v-102zM306 448v102h104v-102zM768 38h-512v718h52v-104h408v104h52zM410 756v102h204v-102zM716 858v102h-408v-102h-154v-922h716v922z" />
<glyph unicode="&#x71;" glyph-name="dollar" d="M470 490c-114 0-172 70-172 150 0 78 56 150 172 150zM726 256c0-78-54-150-172-150v300c114 0 172-70 172-150zM810 256c0 118-86 234-256 234v300h86c48 0 86-38 86-86h84c0 94-76 170-170 170h-86v86h-84v-86c-170 0-256-116-256-234s86-234 256-234v-300h-86c-46 0-86 38-86 86h-84c0-94 76-170 170-170h86v-86h84v86c170 0 256 116 256 234z" />
<glyph unicode="&#x72;" glyph-name="s-twitter" d="M322 38c386 0 598 316 598 588 0 10 0 18 0 28 40 28 76 66 104 106-38-16-78-26-120-32 44 26 76 66 92 114-42-24-86-40-134-50-80 84-212 88-296 10-56-52-78-126-62-198-168 8-326 86-432 216-56-94-28-216 64-276-34 0-66 10-96 26v-4c2-98 72-182 170-202-32-8-64-10-96-4 28-84 108-142 196-142-74-58-166-90-260-90-16 0-34 2-50 4 96-62 208-94 322-94z" />
<glyph unicode="&#x73;" glyph-name="s-google" d="M1014 550h-492c0-50 0-154 0-204h286c-12-52-50-124-104-160 0 0 0 0 0 0-74-48-170-58-242-44-110 22-200 104-236 206 0 0 2 2 2 2-24 64-24 150 0 200v0c28 94 120 180 232 204 90 18 190-2 266-72 10 10 138 134 146 144-254 232-664 150-816-148v0c0 0 0 0 0 0-76-148-74-320 0-460 0 0 0 0 0 0 66-128 186-228 332-264 154-40 350-14 482 106 0 0 0 0 0 0 110 100 180 270 144 490z" />
<glyph unicode="&#x74;" glyph-name="email" d="M922 716l-410-344-410 344v14h820zM102 166v410l410-358 410 358v-410zM0 64h1024v768h-1024z" />
<glyph unicode="&#x75;" glyph-name="profile-round" d="M848 38h-672c-36 0-62 36-50 68 64 152 212 240 386 240s322-88 386-240c12-32-14-68-50-68zM302 652c0 114 94 206 210 206s210-92 210-206c0-112-94-204-210-204s-210 92-210 204zM1022 58c-38 172-158 298-314 356 84 64 132 170 114 286-20 134-134 242-272 258-190 22-352-124-352-306 0-96 46-182 118-238-156-58-276-184-314-356-14-64 38-122 104-122h812c66 0 118 58 104 122z" />
<glyph unicode="&#x76;" glyph-name="rental" d="M276 324c6 0 10 2 14 6s6 8 6 14c2 6-2 12-6 16-8 8-20 8-30 0-4-4-6-10-6-16s2-10 6-14c4-4 10-8 16-6zM574 366h44c12 0 22 10 22 20 0 12-10 22-22 22h-44c-12 0-22-10-22-22 0-10 10-20 22-20zM574 494h44c12 0 22 8 22 20s-10 22-22 22h-44c-12 0-22-10-22-22s10-20 22-20zM744 366h44c10 0 20 10 20 20 0 12-10 22-20 22h-44c-12 0-20-10-20-22 0-10 8-20 20-20zM744 238h44c10 0 20 10 20 20 0 12-10 22-20 22h-44c-12 0-20-10-20-22 0-10 8-20 20-20zM744 494h44c10 0 20 8 20 20s-10 22-20 22h-44c-12 0-20-10-20-22s8-20 20-20zM1006 600l-624 232c-10 2-22-4-26-14s0-22 12-26l56-22v-218l-408-104c-10-4-18-14-16-24 2-12 10-20 22-18 2 0 4 0 4 0l58 14v-332c0-6 2-10 6-14s10-6 16-6h810c10 0 20 8 20 20v492l54-20c2-2 6-2 8-2 10 0 20 8 22 18 0 10-4 20-14 24zM126 432l298 76v-398h-42v148c0 6-2 12-6 16s-10 6-16 6h-170c-12 0-20-10-20-22v-148h-44v322zM212 110v128h128v-128zM596 110v128h42v-128zM894 596v-486h-214v148c0 12-8 22-20 22h-86c-12 0-22-10-22-22v-148h-84v644z" />
<glyph unicode="&#x77;" glyph-name="prospects" d="M696 270c-190 72-224 104-228 112v22c22 26 38 58 48 90 14 14 22 30 26 48 2 18-2 38-12 52v72c0 98-62 156-168 156-104 0-166-58-166-156v-72c-12-14-16-34-12-52 2-18 10-34 24-48 10-32 26-64 50-90v-22c-6-10-42-40-228-112-18-8-30-24-30-44v-86c0-12 4-24 14-32 8-8 20-14 32-14h634c24 0 44 20 44 46v86c0 20-10 36-28 44zM682 140c0-2-2-4-2-4h-634c-2 0-4 2-4 4l2 90c212 82 248 116 256 142 0 2 0 4 0 6v34c0 6-2 12-6 16-22 24-38 52-46 84-2 6-4 10-8 12-8 6-14 14-14 24-2 10 2 20 8 28 2 4 4 8 4 12v78c0 74 42 114 124 114s124-38 124-114v-78c0-4 2-8 6-12 6-8 8-18 8-28-2-10-8-18-16-24-4-2-6-6-8-12-8-32-24-60-46-84-4-4-6-10-6-16v-34c0-2 0-4 2-6 8-26 44-60 256-146zM996 258c-46 16-94 28-142 36-26 2-50 8-74 16v20c92 4 132 34 138 36 4 4 8 12 8 18-2 8-6 14-12 18-20 10-40 98-46 172 0 74-44 142-112 174-60 30-134 24-186-18-6-4-8-10-8-16-2-4 0-10 4-14 8-10 20-10 30-4 40 32 96 38 142 14 54-24 88-78 88-138 2-34 12-134 44-182-36-14-74-20-112-18-12 0-20-10-20-22v-44c0-4 0-6 0-8 10-28 48-36 108-46 46-8 92-20 136-34l-2-82h-188c-8 0-14-4-18-10s-4-14 0-22c4-6 10-10 18-10h188c24 0 44 20 44 44v78c0 20-12 36-28 42z" />
<glyph unicode="&#x78;" glyph-name="notifications" d="M960 250c0 2 0 2 0 4s0 2 0 4 0 2 0 4c-2 2-2 2-2 4-2 2-2 2-2 2 0 2 0 2-2 2 0 0 0 0 0 0-98 108-148 252-140 398 8 108-50 210-148 256-96 48-212 48-308 0-98-46-156-148-148-256 8-146-42-290-140-398 0 0 0 0 0 0-2 0-2 0-2-2 0 0 0 0 0-2-2-2-2-2-2-4-2-2-2-2-2-4s0-2 0-4 0-2 0-4c2-2 2-2 2-4 0 0 2-2 2-4 0 0 2-2 2-2s2 0 2 0c0 0 0 0 0-2 118-96 280-146 440-146s322 50 440 146v2c2 0 2 0 2 0s2 2 2 2c0 2 2 4 2 4 0 2 2 2 2 4zM116 258c96 116 144 262 136 410-8 92 42 178 126 218 84 42 184 42 268 0 84-40 134-126 126-218-8-148 40-294 136-410-220-164-572-164-792 0zM608 68c-6 0-10-2-14-6s-8-10-8-16c0-30-34-54-74-54s-74 24-74 54c0 8-4 16-10 20-8 4-16 4-24 0-6-4-10-12-10-20 0-54 54-98 118-98s118 44 118 98c0 6-2 12-6 16s-10 6-16 6z" />
<glyph unicode="&#x79;" glyph-name="documents" d="M962 812h-56l-18 88c-4 12-14 20-26 16l-570-112c-44 92-68 92-78 92h-152c-34 2-62-26-62-60v-796c0-34 28-62 62-62h900c34 0 62 28 62 62v710c0 34-28 62-62 62zM962 770c10 0 20-8 20-20v-104h-40l-26 124zM898 646h-722l-20 88 694 138zM62 856h148c16-18 30-40 40-60l-124-26c-6 0-10-4-14-8-2-4-4-10-2-16l22-100h-90v190c0 6 2 10 6 14s8 6 14 6zM962 20h-900c-10 0-20 8-20 20v564h940v-564c0-12-10-20-20-20z" />
<glyph unicode="&#x7a;" glyph-name="calendar" d="M882 960h-768c-30 0-60-12-82-34-22-20-34-50-32-82v-770c-2-32 10-62 32-84s52-34 82-34h768c32 0 62 12 86 34 22 22 36 52 36 84v770c0 32-14 62-36 84-24 22-54 34-86 32zM114 918h768c20 2 40-6 56-20 14-14 24-34 24-54v-176h-920v176c-2 20 6 40 20 54s32 22 52 20zM418 332v126h168v-126zM586 292v-126h-168v126zM376 332h-166v126h166zM628 458h166v-126h-166zM628 500v126h166v-126zM586 500h-168v126h168zM376 500h-166v126h166zM168 500h-126v126h126zM168 458v-126h-126v126zM168 292v-126h-126v126zM210 292h166v-126h-166zM376 124v-126h-166v126zM418 124h168v-126h-168zM628 124h166v-126h-166zM628 166v126h166v-126zM836 292h126v-126h-126zM836 332v126h126v-126zM836 500v126h126v-126zM42 74v50h126v-126h-54c-20 0-38 8-52 22s-22 34-20 54zM882-2h-46v126h126v-50c0-20-10-40-24-54s-36-22-56-22zM320 756c22 0 42 12 50 34 10 20 4 44-12 60s-38 20-60 12c-20-8-34-28-34-52 0-30 24-54 56-54zM320 824c6 0 10-2 12-8 2-4 2-10-2-14s-10-6-16-4c-4 2-8 8-8 12 0 8 6 14 14 14zM684 756c22 0 42 12 52 34 8 20 4 44-12 60s-40 20-62 12c-20-8-34-28-34-52 0-30 26-54 56-54zM684 824c8 0 14-6 14-14 0-6-6-12-14-12s-14 6-14 12c0 8 6 14 14 14z" />
<glyph unicode="&#xe900;" glyph-name="call" d="M1005.568 72.858c-31.642-96.051-155.443-143.974-243.917-135.987-120.832 10.906-252.314 75.008-352.102 145.613-146.688 103.731-284.16 264.192-364.186 434.534-56.627 120.32-69.325 268.39 14.848 378.061 31.13 40.55 64.819 62.208 115.405 64.717 70.144 3.43 79.974-36.659 104.090-99.277 17.92-46.746 41.933-94.464 55.296-142.899 25.088-90.47-62.515-94.208-73.574-168.141-6.912-46.643 49.613-109.158 75.11-142.438 50.074-65.126 110.182-121.293 178.074-163.994 38.81-24.576 101.581-68.71 146.074-44.339 68.557 37.581 62.054 153.088 157.901 114.022 49.664-20.224 97.69-49.357 145.050-74.906 73.216-39.424 69.837-80.179 41.933-164.966-20.89-63.386 20.89 63.334 0 0z" />
<glyph unicode="&#xe901;" glyph-name="assign-team-member" horiz-adv-x="931" d="M651.636 680.727c0 102.679-83.503 186.182-186.182 186.182s-186.182-83.503-186.182-186.182 83.503-186.182 186.182-186.182 186.182 83.503 186.182 186.182zM930.909 29.091h-232.727v93.091h129.583c-38.447 176.221-186.135 279.273-362.31 279.273s-323.863-103.052-362.31-279.273h129.583v-93.091h-232.727c0 212.015 120.227 370.129 290.537 434.129-63.85 51.463-104.355 129.666-104.355 217.329 0 0.063 0 0.125 0 0.188v-0.010c0 0.060 0 0.131 0 0.202 0 154.238 125.035 279.273 279.273 279.273s279.273-125.035 279.273-279.273c0-87.778-40.497-166.098-103.826-217.295l-0.528-0.414c170.31-64 290.537-222.115 290.537-434.129zM512 122.182h93.091v-93.091h-93.091v-93.091h-93.091v93.091h-93.091v93.091h93.091v93.091h93.091v-93.091z" />
<glyph unicode="&#xe902;" glyph-name="complete" d="M102.4 38.4v819.2h819.2v-819.2h-819.2zM0-64h1024v1024h-1024v-1024zM483.533 256.102l-181.043 181.043 72.397 72.397 108.646-108.646 217.242 217.242 72.397-72.397-289.638-289.638z" />
<glyph unicode="&#xe903;" glyph-name="confirm" d="M102.4 38.4v819.2h819.2v-819.2h-819.2zM0-64h1024v1024h-1024v-1024zM460.8 396.8h-153.6v102.4h153.6v153.6h102.4v-153.6h153.6v-102.4h-153.6v-153.6h-102.4v153.6z" />
<glyph unicode="&#xe904;" glyph-name="deny" d="M102.4 38.4v819.2h819.2v-819.2h-819.2zM0-64h1024v1024h-1024v-1024zM330.957 352.973l108.595 108.595-108.595 108.646 72.397 72.397 108.646-108.646 108.595 108.646 72.397-72.397-108.595-108.646 108.595-108.595-72.397-72.397-108.595 108.595-108.646-108.595-72.397 72.397z" />
<glyph unicode="&#xe905;" glyph-name="directions" horiz-adv-x="922" d="M716.8 38.4c-56.474 0-102.4 45.926-102.4 102.4s45.926 102.4 102.4 102.4 102.4-45.926 102.4-102.4-45.926-102.4-102.4-102.4zM768 338.381v468.224l21.709-21.709c9.257-9.238 22.035-14.95 36.147-14.95 28.263 0 51.174 22.911 51.174 51.174 0 14.15-5.743 26.959-15.026 36.223l-73.012 72.807c-18.492 18.439-44.011 29.84-72.192 29.84s-53.7-11.401-72.194-29.843l-73.009-72.753c-9.673-9.327-15.681-22.4-15.681-36.876 0-28.277 22.923-51.2 51.2-51.2 14.425 0 27.456 5.965 36.762 15.563l21.722 21.722v-468.224c-89.055-23.536-153.639-103.379-153.639-198.307 0-16.985 2.068-33.488 5.965-49.269l-0.294 1.406c18.22-74.592 75.777-132.234 148.927-150.288l1.396-0.291c14.576-3.702 31.309-5.826 48.538-5.826 113.238 0 205.043 91.765 205.107 204.988v0.006c0 95.334-51.2 174.746-153.6 197.581zM204.8 857.549c56.474 0 102.4-45.875 102.4-102.4 0-56.422-45.926-102.4-102.4-102.4-56.422 0-102.4 45.978-102.4 102.4 0 56.525 45.978 102.4 102.4 102.4zM153.6 557.67v-468.224l-21.658 21.709c-9.262 9.247-22.050 14.965-36.173 14.965-14.149 0-26.957-5.739-36.224-15.016v0h-0.051c-9.232-9.26-14.94-22.037-14.94-36.147 0-14.161 5.749-26.98 15.041-36.249l73.012-72.807c39.936-39.782 104.499-39.782 144.384 0l73.062 72.806c9.279 9.267 15.019 22.075 15.019 36.224 0 28.273-22.92 51.192-51.192 51.192-14.124 0-26.911-5.72-36.173-14.969l0.001 0.001-21.709-21.76v468.173c89.077 23.543 153.677 103.405 153.677 198.356 0 16.967-2.063 33.453-5.951 49.22l0.293-1.406c-18.228 74.604-75.807 132.25-148.978 150.288l-1.396 0.291c-14.561 3.693-31.276 5.812-48.487 5.812-113.225 0-205.028-91.722-205.158-204.916v-0.012c0-95.283 51.2-174.694 153.6-197.53z" />
<glyph unicode="&#xe906;" glyph-name="reschedule" d="M920.115 550.4h-817.869v155.085c0 0.015 0 0.033 0 0.051 0 27.429 22.235 49.664 49.664 49.664h52.582v-102.4h102.195v102.4h408.986v-102.4h102.195v102.4h51.149c28.233-0.058 51.098-22.959 51.098-51.2 0 0 0 0 0 0v0-153.6zM920.115 89.6c0-28.16-22.989-51.2-51.098-51.2h-715.674c-28.233 0.058-51.098 22.959-51.098 51.2 0 0 0 0 0 0v0 358.4h817.818v-358.4zM3.277 50.637c0-56.525 48.998-114.637 105.472-114.637h817.869c56.474 0 97.382 52.275 97.382 114.637 0 19.917-1.638 634.931-1.638 668.314 0 106.598-14.336 138.65-204.493 138.65v102.4h-102.195v-102.4h-408.986v102.4h-102.195v-102.4h-102.246c-56.218 0-102.246-46.080-102.246-102.4l3.277-704.563z" />
<glyph unicode="&#xe907;" glyph-name="archive" d="M870.4 448v153.6l51.2-153.6h-51.2zM870.4 38.4h-716.8c-28.277 0-51.2 22.923-51.2 51.2v0 256h153.6c28.277 0 51.2-22.923 51.2-51.2v0-51.2c0-56.554 45.846-102.4 102.4-102.4v0h204.8c56.554 0 102.4 45.846 102.4 102.4v0 51.2c0 28.277 22.923 51.2 51.2 51.2v0h153.6v-256c0-28.277-22.923-51.2-51.2-51.2v0zM153.6 601.6v-153.6h-51.2l51.2 153.6zM307.2 857.6h409.6c28.277 0 51.2-22.923 51.2-51.2v0-358.4h-51.2c-56.554 0-102.4-45.846-102.4-102.4v0-51.2c0-28.277-22.923-51.2-51.2-51.2v0h-102.4c-28.277 0-51.2 22.923-51.2 51.2v0 51.2c0 56.554-45.846 102.4-102.4 102.4v0h-51.2v358.4c0 28.277 22.923 51.2 51.2 51.2v0zM921.6 755.2h-51.2v102.4c0 56.554-45.846 102.4-102.4 102.4v0h-512c-56.554 0-102.4-45.846-102.4-102.4v0-102.4h-51.2l-102.4-307.2v-409.6c0-56.554 45.846-102.4 102.4-102.4v0h819.2c56.554 0 102.4 45.846 102.4 102.4v0 409.6l-102.4 307.2z" />
<glyph unicode="&#xe908;" glyph-name="message" d="M863.898 451.072c0-0.008 0-0.017 0-0.026 0-56.554-45.846-102.4-102.4-102.4-56.545 0-102.385 45.831-102.4 102.373v0.001c0 0.008 0 0.017 0 0.026 0 56.554 45.846 102.4 102.4 102.4 56.545 0 102.385-45.831 102.4-102.373v-0.001zM607.898 451.072c0-0.008 0-0.017 0-0.026 0-56.554-45.846-102.4-102.4-102.4-56.545 0-102.385 45.831-102.4 102.373v0.001c0 0.008 0 0.017 0 0.026 0 56.554 45.846 102.4 102.4 102.4 56.545 0 102.385-45.831 102.4-102.373v-0.001zM351.898 451.072c0-0.008 0-0.017 0-0.026 0-56.554-45.846-102.4-102.4-102.4-56.545 0-102.385 45.831-102.4 102.373v0.001c0 0.008 0 0.017 0 0.026 0 56.554 45.846 102.4 102.4 102.4 56.545 0 102.385-45.831 102.4-102.373v-0.001zM893.030 38.4s-133.939 38.042-226.458 38.042c-75.469 0-92.672-13.363-156.723-13.363-208.896 0-377.651 154.112-403.558 341.35-34.406 248.525 163.482 453.222 403.558 453.171 201.882 0 360.704-138.394 398.080-311.45 5.962-25.583 9.38-54.958 9.38-85.132 0-36.060-4.881-70.98-14.019-104.135l0.645 2.746c-19.456-71.936-18.586-152.832 2.509-233.882 10.752-41.421 30.669-87.347-13.414-87.347zM1019.802 96.819l-14.234 54.733c-15.514 59.392-18.842 122.112-2.816 181.35 10.754 38.455 16.936 82.615 16.936 128.218 0 37.809-4.249 74.626-12.296 109.998l0.633-3.311c-47.104 217.856-247.091 392.192-498.176 392.192-305.050 0.051-547.482-262.502-504.986-569.6 32.87-237.619 244.531-429.722 504.986-429.722 75.213 0 90.368 13.363 156.774 13.363 80.077 0 193.331-33.894 193.331-33.894 96.666-24.218 184.525 61.901 159.846 156.672z" />
<glyph unicode="&#xe909;" glyph-name="send" d="M0 484.864l506.573-36.147 45.363-512.717 472.064 1024z" />
</font>
</defs>
</svg>
